Coordinates
version=1
nRows=13
nColumns=34
inDegrees=yes

Units are S.I. units (second, meters, Newtons, ...)
If the header above contains a line with 'inDegrees', this indicates whether rotational values are in degrees (yes) or radians (no).

endheader
time	pelvis_tilt	pelvis_list	pelvis_rotation	pelvis_tx	pelvis_ty	pelvis_tz	hip_flexion_r	hip_adduction_r	hip_rotation_r	knee_angle_r	ankle_angle_r	subtalar_angle_r	mtp_angle_r	hip_flexion_l	hip_adduction_l	hip_rotation_l	knee_angle_l	ankle_angle_l	subtalar_angle_l	mtp_angle_l	lumbar_extension	lumbar_bending	lumbar_rotation	arm_flex_r	arm_add_r	arm_rot_r	elbow_flex_r	pro_sup_r	arm_flex_l	arm_add_l	arm_rot_l	elbow_flex_l	pro_sup_l
      2.96666670	     -1.52780803	     -2.59256972	    -62.13018413	      1.07181132	      1.09655210	      2.93940096	     21.07538242	     -2.14051864	     -2.79563676	      5.90178829	      2.16647531	      0.97638506	      0.00000000	    -20.60105283	      4.52800479	      0.59876886	      3.42722674	     17.04577332	      0.95122688	      0.00000000	    -12.56696130	      0.59185813	    -15.89498197	      1.19484196	    -14.08217840	     -4.31151909	     29.37025387	    119.52430707	     32.55210370	    -12.74950312	     18.27942694	     45.98642683	    119.74817918
      2.98333330	     -1.39384534	     -2.58626054	    -61.92171853	      1.07945743	      1.08772468	      2.95994608	     21.22202049	     -2.29653676	     -2.85016775	      4.35179137	      1.65402664	      1.69285356	      0.00000000	    -21.62729516	      4.34891472	      0.68463737	      4.07108558	     17.72227939	      1.49370337	      0.00000000	    -12.30819645	      0.55953543	    -16.88074162	     -0.27584715	    -15.22163209	     -8.53204763	     31.19867788	    119.74817918	     33.44424556	    -13.29631858	     16.88801308	     46.78212811	    119.74817918
      3.00000000	     -1.24359500	     -2.50724629	    -61.72000644	      1.08614471	      1.07732895	      2.98231714	     21.73469169	     -2.45384202	     -3.09876188	      4.78940299	      0.96874998	      1.38675196	      0.00000000	    -22.33938087	      4.12352830	      0.59931019	      5.36043724	     18.17275383	      1.86791037	      0.00000000	    -11.94911726	      0.48046793	    -18.71060012	     -2.39146244	    -17.74809186	    -16.79631645	     38.91840375	    119.63395693	     33.10603564	    -14.49712801	     14.65334326	     47.00368814	    119.74817918
      3.01666670	     -1.10106255	     -2.44360898	    -61.60968696	      1.09036635	      1.06584751	      3.00701404	     22.25384999	     -2.72709498	     -2.96375214	      6.08381506	      0.28889954	      0.64156937	      0.00000000	    -23.09707779	      3.78097350	      0.95965441	      6.83409838	     18.78148819	      2.16571019	      0.00000000	    -11.77712589	      0.08404034	    -20.08108516	     -5.13195911	    -19.87185650	    -24.17309435	     47.01329985	    119.74817918	     32.10909093	    -15.19257286	     13.16029191	     47.52815314	    119.74817918
      3.03333330	     -0.94608459	     -3.03326846	    -61.87829007	      1.09719968	      1.05959649	      3.03215902	     22.04694451	     -2.59745191	     -2.69743650	      8.91833364	     -0.17985417	     -0.26223133	      0.00000000	    -24.57300463	      3.31177653	      1.20868675	      8.18312747	     18.93418984	      2.18258832	      0.00000000	    -11.98525069	      0.50873842	    -19.69776226	     -6.12521336	    -17.81343547	    -24.04074812	     44.76056364	    119.74817918	     31.77077123	    -14.23186186	     13.06555889	     47.48795403	    119.74817918
      3.05000000	     -0.70727239	     -3.49821766	    -62.18882135	      1.10561414	      1.05694799	      3.05613478	     21.60668954	     -2.52730204	     -1.29346415	     11.39751494	     -1.24247391	     -3.04559556	      0.00000000	    -25.55719086	      2.80153927	      1.48915149	     10.26297209	     18.84270282	      2.24583590	      0.00000000	    -12.10206556	      0.72613592	    -18.93534969	     -5.46604427	    -16.23210871	    -22.37124093	     41.17136192	    119.74817918	     30.52836432	    -13.14653080	     12.40804732	     48.40507412	    119.74817918
      3.06666670	     -0.54849317	     -4.21542231	    -62.42049671	      1.11511725	      1.05623209	      3.08201239	     20.79855101	     -2.20560288	     -0.80862930	     13.90839817	     -1.33652611	     -4.22346187	      0.00000000	    -26.27281337	      2.12145492	      1.51234554	     13.18301084	     18.26456388	      2.08206220	      0.00000000	    -12.12787118	      1.32479594	    -17.89659402	     -4.51127973	    -14.92685557	    -21.08442891	     38.09864717	    119.74817918	     29.49932954	    -12.14470395	     13.00767084	     47.95884605	    119.74817918
      3.08333330	     -0.48938154	     -4.98410647	    -62.53447781	      1.12209536	      1.05838524	      3.10772767	     19.75504887	     -1.66583492	     -0.19190205	     16.12110806	     -0.93984305	     -5.59079836	      0.00000000	    -26.34757529	      1.17156464	      1.21998560	     16.85780536	     16.69770164	      1.81125535	      0.00000000	    -12.02279542	      2.02720915	    -17.14157718	     -3.80626653	    -13.53014421	    -19.65566752	     35.20448439	    119.74817918	     28.12833475	    -11.40763436	     13.32042922	     46.29076578	    119.74817918
      3.10000000	     -0.52442749	     -5.59362131	    -62.51747269	      1.12841100	      1.06308782	      3.13141270	     18.84707200	     -0.90223475	      0.99377700	     18.11469337	     -0.47295592	     -7.94941066	      0.00000000	    -25.52172708	      0.05830961	      0.48927680	     21.33265467	     14.46875039	      1.72434606	      0.00000000	    -11.76991545	      2.66483407	    -16.86951898	     -3.31573130	    -12.53679753	    -17.59422094	     32.00437125	    119.74817918	     26.64452677	    -10.94065156	     13.64153421	     44.82503366	    119.74817918
      3.11666670	     -0.64531944	     -6.31205863	    -62.61978202	      1.13380052	      1.06584879	      3.15541364	     17.96204632	     -0.06186482	      1.78036588	     20.18762144	      0.62140167	     -8.91814641	      0.00000000	    -24.44168138	     -1.17154936	     -0.27572131	     26.25576237	     11.55657611	      1.12163465	      0.00000000	    -11.74861466	      3.43504482	    -16.00211166	     -2.81258714	    -11.71538663	    -16.86491244	     29.33911712	    119.74817918	     25.57189477	    -10.44278250	     14.28042074	     43.21035512	    119.74817918
      3.13333330	     -0.82812359	     -6.74486403	    -62.27844809	      1.13951739	      1.06661681	      3.17875141	     17.31745097	      0.76633458	      2.72438817	     22.04578215	      1.81779713	    -10.58939358	      0.00000000	    -21.34364200	     -2.69413778	     -1.27318040	     33.56072831	      8.44255837	      0.68537850	      0.00000000	    -11.41977863	      4.06008850	    -15.32412117	     -2.24730050	    -11.02982169	    -14.39333895	     27.29186621	    119.74817918	     24.59828016	    -10.12423981	     16.00012658	     41.42333485	    119.74817918
      3.15000000	     -1.08028298	     -7.55914284	    -62.27807120	      1.14644752	      1.06865456	      3.20519138	     15.95865042	      1.80680672	      3.28828504	     23.31597473	      3.16376620	    -11.01085223	      0.00000000	    -19.04186311	     -4.26391229	     -2.07858287	     39.81124852	      4.99950499	     -0.29458532	      0.00000000	    -11.40593749	      4.92542689	    -14.30716477	     -1.63572736	    -10.05481176	    -13.21597672	     25.05036881	    119.74817918	     23.52384779	     -9.45199228	     16.89134456	     39.27286315	    119.74817918
      3.16666670	     -1.42330870	     -7.95812569	    -61.74584673	      1.15317135	      1.07057877	      3.22879129	     14.63236487	      2.59451795	      3.37259130	     23.79464371	      4.16506049	    -11.38726795	      0.00000000	    -16.28269900	     -5.80308397	     -2.16545434	     45.34842856	      3.31684607	     -1.21766083	      0.00000000	    -11.18130810	      5.53211462	    -13.91420720	     -0.94531969	     -9.32616830	     -9.82087828	     23.28352149	    119.74817918	     22.58524672	     -8.81965832	     18.91711034	     36.27385972	    119.74817918
